<svg width="14" height="13" viewBox="0 0 14 13" fill="none" xmlns="http://www.w3.org/2000/svg">
<path fill-rule="evenodd" clip-rule="evenodd" d="M2.73653 9.67187C2.77895 9.62592 2.83021 9.58902 2.88723 9.56335C2.94426 9.53769 3.00588 9.52381 3.0684 9.52253H13.4956C13.5398 9.52315 13.5828 9.5365 13.6195 9.56098C13.6562 9.58547 13.685 9.62003 13.7026 9.66052C13.7201 9.70101 13.7255 9.74571 13.7183 9.78923C13.711 9.83275 13.6913 9.87324 13.6616 9.90583L11.4513 12.36C11.4089 12.4059 11.3577 12.4428 11.3006 12.4685C11.2436 12.4942 11.182 12.508 11.1195 12.5093H0.685594C0.641476 12.5087 0.598476 12.4954 0.561768 12.4709C0.52506 12.4464 0.496206 12.4118 0.478677 12.3713C0.461148 12.3308 0.455691 12.2861 0.462962 12.2426C0.470233 12.1991 0.489922 12.1586 0.519661 12.126L2.73653 9.67187ZM13.6715 7.63753C13.7013 7.67012 13.721 7.71061 13.7282 7.75413C13.7355 7.79765 13.73 7.84235 13.7125 7.88284C13.695 7.92333 13.6661 7.95789 13.6294 7.98238C13.5927 8.00686 13.5497 8.02021 13.5056 8.02083L3.07503 8.02913C3.01251 8.02785 2.95089 8.01396 2.89387 7.9883C2.83684 7.96264 2.78559 7.92573 2.74317 7.87979L0.516342 5.43393C0.486603 5.40134 0.466914 5.36085 0.459643 5.31733C0.452372 5.27381 0.457829 5.22911 0.475358 5.18862C0.492887 5.14813 0.521741 5.11357 0.558449 5.08908C0.595158 5.0646 0.638157 5.05125 0.682276 5.05063L11.1128 5.04233C11.1754 5.04361 11.237 5.05749 11.294 5.08316C11.351 5.10882 11.4023 5.14573 11.4447 5.19167L13.6715 7.63753ZM2.73653 0.711474C2.77895 0.665529 2.83021 0.62862 2.88723 0.602959C2.94426 0.577298 3.00588 0.563412 3.0684 0.562134L13.5023 0.57043C13.5464 0.571052 13.5894 0.584406 13.6261 0.608887C13.6628 0.633368 13.6917 0.667933 13.7092 0.708425C13.7267 0.748916 13.7322 0.79361 13.7249 0.83713C13.7176 0.880649 13.6979 0.921142 13.6682 0.953736L11.4513 3.39959C11.4089 3.44554 11.3577 3.48245 11.3006 3.50811C11.2436 3.53377 11.182 3.54765 11.1195 3.54893H0.685594C0.641476 3.54831 0.598476 3.53496 0.561768 3.51048C0.52506 3.48599 0.496206 3.45143 0.478677 3.41094C0.461148 3.37045 0.455691 3.32575 0.462962 3.28223C0.470233 3.23871 0.489922 3.19822 0.519661 3.16563L2.73653 0.711474Z" fill="white"/>
</svg>
