<svg width="40" height="40" viewBox="0 0 40 40" fill="none" xmlns="http://www.w3.org/2000/svg">
<path d="M33.3333 20V17.155C33.3333 9.75169 27.5349 3.55336 20.4083 3.33836C16.7349 3.25336 13.3233 4.56502 10.7149 7.09836C9.42898 8.33723 8.40731 9.82374 7.71154 11.4682C7.01576 13.1127 6.6603 14.8811 6.66659 16.6667V20C4.82825 20 3.33325 21.495 3.33325 23.3334V30C3.33325 31.8384 4.82825 33.3334 6.66659 33.3334H9.99992V16.6667C9.99501 15.3275 10.2614 14.0012 10.783 12.7678C11.3046 11.5343 12.0707 10.4193 13.0349 9.49002C13.9951 8.55532 15.134 7.82395 16.3835 7.33969C17.633 6.85542 18.9673 6.62823 20.3066 6.67169C25.6533 6.83169 29.9999 11.535 29.9999 17.155V33.3334H33.3333C35.1716 33.3334 36.6666 31.8384 36.6666 30V23.3334C36.6666 21.495 35.1716 20 33.3333 20Z" fill="white"/>
<path d="M11.6667 20H15.0001V33.3333H11.6667V20ZM25.0001 20H28.3334V33.3333H25.0001V20Z" fill="white"/>
</svg>
