<svg width="27" height="33" viewBox="0 0 27 33" fill="none" xmlns="http://www.w3.org/2000/svg">
<path d="M0 1.34167V30.8583C0 31.2142 0.141354 31.5554 0.392965 31.807C0.644576 32.0586 0.985835 32.2 1.34167 32.2H25.4917C25.8475 32.2 26.1888 32.0586 26.4404 31.807C26.692 31.5554 26.8333 31.2142 26.8333 30.8583V1.34167C26.8333 0.985835 26.692 0.644576 26.4404 0.392965C26.1888 0.141354 25.8475 0 25.4917 0L1.34167 0C0.985835 0 0.644576 0.141354 0.392965 0.392965C0.141354 0.644576 0 0.985835 0 1.34167ZM4.025 6.70833H12.075V14.7583H4.025V6.70833ZM22.8083 25.4917H4.025V22.8083H22.8083V25.4917ZM22.8083 20.125H4.025V17.4417H22.8083V20.125ZM22.8083 14.7583H14.7583V12.075H22.8083V14.7583ZM22.8083 9.39167H14.7583V6.70833H22.8083V9.39167Z" fill="white"/>
</svg>
