<svg width="18" height="19" viewBox="0 0 18 19" fill="none" xmlns="http://www.w3.org/2000/svg">
<path d="M8.21644 1.65585C8.48277 0.953422 9.49063 0.953422 9.75778 1.65585L11.4806 6.42802C11.6012 6.74427 11.9083 6.95484 12.2512 6.95484H16.4849C17.2673 6.95484 17.6085 7.92858 16.9934 8.40546L13.9807 11.1161C13.8457 11.2199 13.7471 11.3637 13.6989 11.527C13.6508 11.6903 13.6556 11.8646 13.7127 12.025L14.8129 16.6881C15.0809 17.4371 14.2137 18.0805 13.5579 17.6194L9.46566 15.0227C9.32552 14.9243 9.1584 14.8714 8.98711 14.8714C8.81582 14.8714 8.64871 14.9243 8.50856 15.0227L4.41635 17.6194C3.76137 18.0805 2.89332 17.4363 3.16131 16.6881L4.26155 12.025C4.31863 11.8646 4.32344 11.6903 4.27529 11.527C4.22715 11.3637 4.12852 11.2199 3.99357 11.1161L0.980791 8.40546C0.36492 7.92858 0.70781 6.95484 1.48847 6.95484H5.72217C5.88886 6.95539 6.05179 6.90532 6.18941 6.81125C6.32702 6.71718 6.43283 6.58354 6.49284 6.42802L8.21561 1.65585H8.21644Z" fill="white" stroke="white" stroke-width="1.24839" stroke-linecap="round" stroke-linejoin="round"/>
</svg>
