<svg width="33" height="33" viewBox="0 0 33 33" fill="none" xmlns="http://www.w3.org/2000/svg">
<path d="M24.3585 8.12V9.47333H27.0651V8.12C27.0651 3.64182 23.4233 0 18.9451 0H17.5918V2.70667H18.9451C21.9306 2.70667 24.3585 5.13455 24.3585 8.12Z" fill="white"/>
<path d="M8.11878 24.36V23.0067H5.41211V24.36C5.41211 28.8382 9.05393 32.48 13.5321 32.48H14.8854V29.7734H13.5321C10.5467 29.7734 8.11878 27.3455 8.11878 24.36Z" fill="white"/>
<path d="M12.18 0H2.70667C1.21123 0 0 1.21123 0 2.70667V17.5933C0 19.0888 1.21123 20.3 2.70667 20.3H12.18C13.6754 20.3 14.8867 19.0888 14.8867 17.5933V2.70667C14.8867 1.21123 13.6754 0 12.18 0ZM12.18 16.24H2.70667V4.06H12.18V16.24Z" fill="white"/>
<path d="M29.7718 12.1801H20.2985C18.803 12.1801 17.5918 13.3913 17.5918 14.8867V29.7734C17.5918 31.2688 18.803 32.4801 20.2985 32.4801H29.7718C31.2672 32.4801 32.4785 31.2688 32.4785 29.7734V14.8867C32.4785 13.3913 31.2672 12.1801 29.7718 12.1801ZM29.7718 28.4201H20.2985V16.2401H29.7718V28.4201Z" fill="white"/>
</svg>
