<svg width="137" height="142" viewBox="0 0 137 142" fill="none" xmlns="http://www.w3.org/2000/svg">
<path d="M91.3157 94.7662L68.6813 71.3198L46.0469 94.7662" stroke="black" stroke-width="2.01865" stroke-linecap="round" stroke-linejoin="round"/>
<path d="M68.6816 71.3198V124.074" stroke="white" stroke-width="3.02797" stroke-linecap="round" stroke-linejoin="round"/>
<path d="M116.157 108.775C121.676 105.659 126.036 100.727 128.548 94.758C131.061 88.7894 131.583 82.1239 130.033 75.8137C128.482 69.5034 124.947 63.9077 119.986 59.9097C115.024 55.9117 108.919 53.7391 102.633 53.7348H95.5029C93.7901 46.8723 90.5978 40.5013 86.1659 35.1007C81.734 29.7002 76.1779 25.4107 69.9152 22.5546C63.6526 19.6986 56.8464 18.3504 50.0083 18.6114C43.1703 18.8724 36.4783 20.7357 30.4356 24.0614C24.3928 27.3871 19.1565 32.0885 15.1202 37.8122C11.084 43.536 8.35293 50.1331 7.13231 57.1075C5.91169 64.082 6.2333 71.2524 8.07296 78.0796C9.91262 84.9068 13.2225 91.2131 17.7536 96.5245" stroke="white" stroke-width="3.02797" stroke-linecap="round" stroke-linejoin="round"/>
<path d="M91.3157 94.7662L68.6813 71.3198L46.0469 94.7662" stroke="white" stroke-width="3.02797" stroke-linecap="round" stroke-linejoin="round"/>
</svg>
