<svg width="20" height="20" viewBox="0 0 20 20" fill="none" xmlns="http://www.w3.org/2000/svg">
<path d="M9.87498 18.3644L7.06427 19.9219L5.53322 17.0764L2.33523 16.8514L2.56994 13.6214L0 11.6854L1.92595 9.09637L0.800018 6.06399L3.80573 4.93789L4.48127 1.77191L7.61246 2.46629L9.87498 0.171875L12.1375 2.46629L15.2687 1.77191L15.9442 4.93789L18.95 6.06399L17.824 9.09637L19.75 11.6854L17.18 13.6214L17.4147 16.8514L14.2168 17.0764L12.6857 19.9219L9.87498 18.3644Z" fill="white"/>
<path d="M13.9182 6.39746L8.39496 12.9306L6.0636 10.1721L5.65332 10.6572L8.39496 13.9007L14.3921 6.8063L13.9182 6.39746V6.39746Z" fill="black"/>
</svg>
