<svg width="35" height="35" viewBox="0 0 35 35" fill="none" xmlns="http://www.w3.org/2000/svg">
<path d="M23.5 8.66667V8.16667H23H10.5C9.76469 8.16667 9.16667 8.76469 9.16667 9.5C9.16667 10.2353 9.76469 10.8333 10.5 10.8333H11.3333H27.1667C27.3505 10.8333 27.5 10.9828 27.5 11.1667V26.1667C27.5 26.3505 27.3505 26.5 27.1667 26.5H11.3333C9.76864 26.5 8.5 25.2314 8.5 23.6667V9.5C8.5 8.39531 9.39531 7.5 10.5 7.5H23.8333C24.0172 7.5 24.1667 7.64948 24.1667 7.83333V9H23.5V8.66667ZM20.8333 18.6667C20.8333 19.8636 21.803 20.8333 23 20.8333C24.197 20.8333 25.1667 19.8636 25.1667 18.6667C25.1667 17.4697 24.197 16.5 23 16.5C21.803 16.5 20.8333 17.4697 20.8333 18.6667Z" stroke="white"/>
<circle cx="17.5" cy="17.5" r="17" stroke="white"/>
</svg>
