<svg width="30" height="25" viewBox="0 0 30 25" fill="none" xmlns="http://www.w3.org/2000/svg">
<path d="M1 3.8C1 3.05739 1.295 2.3452 1.8201 1.8201C2.3452 1.295 3.05739 1 3.8 1H26.2C26.9426 1 27.6548 1.295 28.1799 1.8201C28.705 2.3452 29 3.05739 29 3.8V20.6C29 21.3426 28.705 22.0548 28.1799 22.5799C27.6548 23.105 26.9426 23.4 26.2 23.4H3.8C3.05739 23.4 2.3452 23.105 1.8201 22.5799C1.295 22.0548 1 21.3426 1 20.6V3.8Z" stroke="white" stroke-width="1.5" stroke-linecap="round" stroke-linejoin="round"/>
<path d="M1 6.6001H29" stroke="white" stroke-width="1.5" stroke-linecap="round" stroke-linejoin="round"/>
<path d="M1 12.2001H10.8C10.8 13.6001 11.64 16.4001 15 16.4001C18.36 16.4001 19.2 13.6001 19.2 12.2001H29" stroke="white" stroke-width="1.5" stroke-linecap="round" stroke-linejoin="round"/>
</svg>
