<svg width="35" height="35" viewBox="0 0 35 35" fill="none" xmlns="http://www.w3.org/2000/svg">
<path transform="translate(6 6)" fill-rule="evenodd" clip-rule="evenodd" d="M18.536 14.9421L18.5301 12.6666L15.3246 12.6749C15.0511 12.6756 14.9143 12.6759 14.7992 12.6877C13.6934 12.8005 12.8208 13.6777 12.7137 14.784C12.7025 14.8992 12.7029 15.036 12.7036 15.3095C12.7044 15.6359 12.7048 15.7991 12.7197 15.9286C12.8638 17.1856 13.9835 18.0986 15.2438 17.987C15.3736 17.9755 15.5335 17.943 15.8534 17.8782L16.1987 17.8082C16.6424 17.7183 16.8642 17.6733 17.0512 17.6004C17.8146 17.3029 18.366 16.6267 18.5039 15.8191C18.5377 15.6211 18.5371 15.3948 18.536 14.9421ZM6.87536 17.3056L6.86948 15.03L3.66402 15.0383C3.3905 15.039 3.25374 15.0394 3.13858 15.0511C2.03285 15.164 1.16021 16.0412 1.05306 17.1475C1.0419 17.2627 1.04225 17.3994 1.04296 17.673C1.0438 17.9994 1.04422 18.1626 1.05907 18.292C1.20322 19.549 2.32289 20.4621 3.58317 20.3504C3.71298 20.3389 3.87304 20.3065 4.19283 20.2417L4.5381 20.1717C4.98174 20.0818 5.20357 20.0368 5.39064 19.9639C6.15404 19.6663 6.70544 18.9902 6.84333 18.1825C6.87712 17.9846 6.87653 17.7583 6.87536 17.3056Z" fill="white"/>
<path transform="translate(6 6)" d="M6.86948 15.03L6.85441 9.19673M6.86948 15.03L6.87536 17.3056M6.86948 15.03L3.66402 15.0383M18.5301 12.6666L18.515 6.83327M18.5301 12.6666L18.536 14.9421M18.5301 12.6666L15.3246 12.6749M18.515 6.83327L6.85441 9.19673M18.515 6.83327L18.5146 6.69235M6.85441 9.19673L6.84923 7.18916M6.84923 7.18916C6.84449 5.35779 6.84213 4.4421 7.36933 3.79562C7.89653 3.14914 8.79397 2.96724 10.5888 2.60344M6.84923 7.18916L6.84646 6.11716C6.84305 4.79895 6.84135 4.13985 7.22082 3.67451C7.6003 3.20918 8.24627 3.07825 9.53821 2.81639L10.5888 2.60344M6.84923 7.18916L6.87536 17.3056M10.5888 2.60344L12.921 2.13075M12.921 2.13075C15.5022 1.60757 16.7928 1.34597 17.6486 2.0439C18.5044 2.74182 18.5078 4.05867 18.5146 6.69235M12.921 2.13075L14.4842 1.81389C16.3422 1.43731 17.2711 1.24902 17.8872 1.75138C18.5032 2.25374 18.5056 3.20159 18.5105 5.0973L18.5146 6.69235M18.536 14.9421C18.5371 15.3948 18.5377 15.6211 18.5039 15.8191C18.366 16.6267 17.8146 17.3029 17.0512 17.6004C16.8642 17.6733 16.6424 17.7183 16.1987 17.8082M18.536 14.9421V14.9421C18.5385 15.9077 18.5397 16.3904 18.3304 16.7707C18.2324 16.9486 18.103 17.1072 17.9485 17.239C17.6181 17.5205 17.145 17.6164 16.1987 17.8082V17.8082M16.1987 17.8082L15.8534 17.8782M15.8534 17.8782C15.5335 17.943 15.3736 17.9755 15.2438 17.987C13.9835 18.0986 12.8638 17.1856 12.7197 15.9286C12.7048 15.7991 12.7044 15.6359 12.7036 15.3095M15.8534 17.8782V17.8782C14.8179 18.0881 14.3001 18.193 13.891 18.0668C13.474 17.9382 13.1235 17.6524 12.9136 17.2698C12.7077 16.8944 12.7063 16.3661 12.7036 15.3095V15.3095M12.7036 15.3095C12.7029 15.036 12.7025 14.8992 12.7137 14.784C12.8208 13.6777 13.6934 12.8005 14.7992 12.6877C14.9143 12.6759 15.0511 12.6756 15.3246 12.6749M12.7036 15.3095V15.3095C12.7013 14.4248 12.7001 13.9825 12.8617 13.6401C13.0267 13.2904 13.3073 13.0084 13.656 12.8416C13.9976 12.6783 14.44 12.6771 15.3246 12.6749V12.6749M6.87536 17.3056C6.87653 17.7583 6.87712 17.9846 6.84333 18.1825C6.70544 18.9902 6.15404 19.6663 5.39064 19.9639C5.20357 20.0368 4.98174 20.0818 4.5381 20.1717M6.87536 17.3056V17.3056C6.87786 18.2711 6.87911 18.7539 6.66976 19.1342C6.57183 19.312 6.44245 19.4707 6.28789 19.6024C5.95753 19.884 5.48438 19.9799 4.5381 20.1717V20.1717M4.5381 20.1717L4.19283 20.2417M4.19283 20.2417C3.87304 20.3065 3.71298 20.3389 3.58317 20.3504C2.32289 20.4621 1.20322 19.549 1.05907 18.292C1.04422 18.1626 1.0438 17.9994 1.04296 17.673M4.19283 20.2417V20.2417C3.15727 20.4516 2.63948 20.5565 2.23037 20.4303C1.8134 20.3017 1.46287 20.0158 1.25299 19.6333C1.04705 19.2579 1.04569 18.7296 1.04296 17.673V17.673M1.04296 17.673C1.04225 17.3994 1.0419 17.2627 1.05306 17.1475C1.16021 16.0412 2.03285 15.164 3.13858 15.0511C3.25374 15.0394 3.3905 15.039 3.66402 15.0383M1.04296 17.673V17.673C1.04067 16.7883 1.03953 16.346 1.20112 16.0036C1.3661 15.6539 1.64666 15.3719 1.99545 15.2051C2.33704 15.0418 2.77937 15.0406 3.66402 15.0383V15.0383" stroke="white"/>
<circle cx="17.5" cy="17.5001" r="17" stroke="white"/>
</svg>
