<svg xmlns="http://www.w3.org/2000/svg" xmlns:xlink="http://www.w3.org/1999/xlink" viewBox="0,0,256,256" width="64px" height="64px"><defs><linearGradient x1="32" y1="10" x2="32" y2="54" gradientUnits="userSpaceOnUse" id="color-1"><stop offset="0" stop-color="#6dc7ff"></stop><stop offset="0.699" stop-color="#e6abff"></stop></linearGradient><linearGradient x1="32.06457" y1="6.14926" x2="32.06454" y2="84.39044" gradientUnits="userSpaceOnUse" id="color-2"><stop offset="0" stop-color="#1a6dff"></stop><stop offset="0.695" stop-color="#c822ff"></stop></linearGradient></defs><g fill="none" fill-rule="none" stroke="none" stroke-width="1" stroke-linecap="butt" stroke-linejoin="miter" stroke-miterlimit="10" stroke-dasharray="" stroke-dashoffset="0" font-family="none" font-weight="none" font-size="none" text-anchor="none" style="mix-blend-mode: normal"><g transform="scale(4,4)"><path d="M32,10c-12.15,0 -22,9.85 -22,22c0,12.15 9.85,22 22,22c12.15,0 22,-9.85 22,-22c0,-12.15 -9.85,-22 -22,-22zM43.41,42.48c-0.3,0.05 -0.63,0.07 -0.98,0.07c-1.64,0 -3.72,-0.65 -5.66,-3.15c-0.89,-1.14 -1.59,-2.55 -2.07,-4.19c-0.61,-1.8 -2.58,-6.97 -4.16,-8.54c-1.38,-1.39 -3.23,-2.13 -5.18,-2.11c-1.96,0.03 -3.78,0.83 -5.13,2.25c-2.57,2.73 -2.57,7.15 0,9.88c1.35,1.42 3.17,2.22 5.13,2.25c1.95,0 3.8,-0.72 5.18,-2.11l2.13,2.13c-1.97,1.96 -4.56,2.99 -7.35,2.98c-2.78,-0.04 -5.36,-1.17 -7.27,-3.19c-3.65,-3.86 -3.65,-10.14 0,-14c1.91,-2.02 4.49,-3.15 7.27,-3.19c2.73,-0.02 5.38,1.02 7.35,2.98c2.35,2.36 4.64,9.02 4.89,9.77c0.4,1.33 0.92,2.4 1.58,3.25c1.76,2.27 3.3,2.03 3.81,1.95c1.39,-0.21 2.56,-0.89 3.13,-1.82c0.48,-0.77 0.55,-1.72 0.2,-2.8c-0.28,-0.9 -2.31,-1.72 -3.94,-1.9c-3.41,-0.36 -5.33,-2.76 -5.12,-6.4c0.14,-2.4 2.26,-4.08 4.28,-4.5c2.22,-0.46 4.47,0.44 5.74,2.3l-2.48,1.69c-0.46,-0.68 -1.41,-1.31 -2.65,-1.05c-0.89,0.19 -1.84,0.89 -1.89,1.74c-0.12,2.04 0.63,3.05 2.44,3.24c2.01,0.21 5.63,1.29 6.48,3.97c0.62,1.93 0.44,3.76 -0.51,5.29c-1.04,1.68 -2.94,2.85 -5.22,3.21z" fill="url(#color-1)" fill-rule="evenodd"></path><path d="M15.542,52.039c-7.555,-6.238 -11.262,-16.512 -8.643,-26.604c3.6,-13.876 17.82,-22.236 31.697,-18.635v0c6.724,1.746 12.364,6.003 15.884,11.988c3.519,5.986 4.496,12.985 2.752,19.709c-3.599,13.877 -17.819,22.236 -31.696,18.636c-3.786,-0.982 -7.161,-2.754 -9.994,-5.094zM47.346,13.443c-2.666,-2.202 -5.805,-3.812 -9.252,-4.706v0c-12.81,-3.324 -25.935,4.392 -29.259,17.2c-3.323,12.81 4.393,25.937 17.202,29.26c12.81,3.323 25.935,-4.394 29.258,-17.202c1.611,-6.207 0.708,-12.668 -2.539,-18.193c-1.444,-2.457 -3.276,-4.598 -5.41,-6.359zM38.345,7.768l0.008,0.006zM27.293,50.357l0.008,0.006z" fill="url(#color-2)" fill-rule="nonzero"></path></g></g></svg>