<svg width="1711" height="1676" viewBox="0 0 1711 1676" fill="none" xmlns="http://www.w3.org/2000/svg">
<path d="M599.024 682.363L415.352 745.298C379.985 757.518 347.419 758.602 317.652 748.55C287.886 738.498 267.863 719.351 257.584 691.11C243.529 652.495 257.82 603.889 300.457 545.293C343.461 485.91 399.88 431.109 469.715 380.888C539.917 329.882 603.259 294.1 659.74 273.542C771.551 232.846 837.84 241.027 858.608 298.085C865.321 316.529 857.918 358.058 836.401 422.674C815.459 487.081 795.191 522.85 775.595 529.983C771.561 531.451 766.897 531.19 761.604 529.201C756.678 526.425 753.165 522.155 751.068 516.392C748.97 510.628 752.11 497.737 760.488 477.718C769.233 456.912 772.347 443.051 769.83 436.135C767.942 430.948 760.37 430.767 747.114 435.591C711.38 448.597 659.828 482.699 592.457 537.897C524.877 592.518 493.918 627.609 499.582 643.171C501.89 649.511 509.698 651.237 523.007 648.352C536.106 644.889 559.003 637.861 591.698 627.266C624.183 616.095 653.158 607.834 678.623 602.481C704.088 597.129 725.572 595.184 743.074 596.646C760.943 597.322 775.275 599.938 786.071 604.493C797.443 608.839 807.506 614.967 816.259 622.877C829.416 635.711 838.826 649.909 844.49 665.47C859.593 706.967 846.273 759.136 804.528 821.977C763.359 884.607 707.334 943.182 636.452 997.699C566.147 1052.01 499.871 1090.49 437.626 1113.14C308.525 1160.13 229.185 1143 199.607 1061.73C185.972 1024.27 204.431 982.63 254.984 936.817C280.087 946.609 324.914 939.757 389.464 916.263C435.676 896.18 476.777 873.714 512.769 848.865C548.551 823.441 575.374 800.298 593.236 779.437C610.889 758 623.957 739.211 632.441 723.069C640.716 706.35 644.249 693.642 643.041 684.944C637.903 674.413 623.23 673.553 599.024 682.363Z" fill="url(#paint0_radial_4770_1199)"/>
<path d="M1329.44 728.824C1337.4 714.775 1346.16 706.009 1355.73 702.526C1365.57 698.941 1374.61 698.363 1382.82 700.791C1391.21 702.836 1398.9 706.889 1405.89 712.951C1419.38 724.614 1430.22 741.702 1438.41 764.216C1446.5 786.448 1451.71 812.122 1454.02 841.239C1456.23 870.074 1456.16 900.534 1453.81 932.62C1451.37 964.424 1447.05 997.227 1440.87 1031.03C1434.69 1064.83 1427.32 1098.43 1418.76 1131.82C1410.48 1165.11 1401.52 1197.85 1391.88 1230.04C1382.14 1261.95 1372.54 1292.05 1363.08 1320.35C1353.63 1348.66 1344.72 1374.53 1336.36 1397.97C1328.28 1421.3 1321.53 1441.29 1316.11 1457.92C1309.35 1519.02 1290.49 1555.21 1259.53 1566.47C1238.99 1573.95 1210.87 1572.87 1175.17 1563.24C1138.05 1553.17 1116.25 1539.27 1109.8 1521.54C1104.48 1506.9 1109.16 1486.07 1123.87 1459.05C1127.37 1452.04 1130.77 1446.5 1134.07 1442.43C1144.29 1379.43 1142.35 1299.67 1128.25 1203.14C1120.12 1148.41 1108.27 1099.66 1092.7 1056.88C1067.5 987.655 1035.85 945.792 997.752 931.296C980.044 924.674 962.748 924.436 945.863 930.582C928.978 936.728 915.023 946.109 903.999 958.726C892.975 971.344 883.961 986.417 876.955 1003.95C861.18 1043.79 860.104 1082.42 873.727 1119.85C884.994 1150.81 910.14 1174.8 949.164 1191.83C943.796 1210.36 931.699 1228.78 912.873 1247.11C907.425 1252.28 901.464 1256.04 894.992 1258.4C888.519 1260.75 880.344 1261.5 870.468 1260.63C860.873 1259.66 851.367 1256.74 841.949 1251.89C821.554 1240.51 807.361 1223.84 799.372 1201.89C791.383 1179.94 787.052 1158.41 786.381 1137.3C785.428 1116.3 787.174 1095.26 791.62 1074.2C796.066 1053.15 802.802 1032.69 811.828 1012.83C820.854 992.973 831.531 974.586 843.858 957.67C870.458 922.174 899.798 898.587 931.88 886.91C964.243 875.131 993.691 871.106 1020.23 874.833C1047.04 878.459 1072.21 887.624 1095.73 902.329C1119.42 916.65 1141.5 935.706 1161.95 959.495C1204.9 1009.2 1240.5 1072.88 1268.77 1150.55C1278.81 1178.13 1287.34 1205.94 1294.36 1233.98C1336.5 1150.12 1365.34 1077 1380.88 1014.62C1401.71 930.87 1401.42 859.587 1380.01 800.77C1367.82 767.281 1350.97 743.299 1329.44 728.824Z" fill="url(#paint1_radial_4770_1199)"/>
<defs>
<radialGradient id="paint0_radial_4770_1199" cx="0" cy="0" r="1" gradientUnits="userSpaceOnUse" gradientTransform="translate(571.116 645.045) rotate(70) scale(538.387 406.059)">
<stop stop-color="#F3AFFC"/>
<stop offset="1" stop-color="#5D1966"/>
</radialGradient>
<radialGradient id="paint1_radial_4770_1199" cx="0" cy="0" r="1" gradientUnits="userSpaceOnUse" gradientTransform="translate(1196.06 1125.62) rotate(70) scale(445.439 384.927)">
<stop stop-color="#F3AFFC"/>
<stop offset="1" stop-color="#5D1966"/>
</radialGradient>
</defs>
</svg>
